<svg width="174" height="159" viewBox="0 0 174 159" fill="none" xmlns="http://www.w3.org/2000/svg">
<path d="M30.332 141.49C56.332 128.502 37.332 98.502 72.332 95.9902C74.9987 113.99 70.332 148.29 30.332 141.49Z" fill="url(#paint0_linear_4145_3273)"/>
<path d="M42.347 119.496C57.347 60.9961 119.847 124.996 126.847 64.4961C107.832 92.1272 33.3322 39.502 42.347 119.496Z" fill="url(#paint1_linear_4145_3273)"/>
<path d="M143.668 16C130.77 80.5 74.7695 20.5 73.668 68C69.3619 67.4117 65.1405 67.9754 61.3203 69.106C54.7412 71.0531 49.352 74.6814 46.7695 77.002C46.7682 70.5342 47.1781 65.0848 47.9467 60.502C55.9134 13.0049 102.425 58.5981 129.27 28.502C116.07 36.902 102.77 36.6673 97.7695 35.5C106.77 13.002 119.77 23.002 143.668 16Z" fill="url(#paint2_linear_4145_3273)"/>
<defs>
<linearGradient id="paint0_linear_4145_3273" x1="164.549" y1="119.406" x2="114.753" y2="-3.47667" gradientUnits="userSpaceOnUse">
<stop stop-color="#B721FF"/>
<stop offset="1" stop-color="#4361EF"/>
</linearGradient>
<linearGradient id="paint1_linear_4145_3273" x1="164.549" y1="119.406" x2="114.753" y2="-3.47667" gradientUnits="userSpaceOnUse">
<stop stop-color="#B721FF"/>
<stop offset="1" stop-color="#4361EF"/>
</linearGradient>
<linearGradient id="paint2_linear_4145_3273" x1="164.549" y1="119.406" x2="114.753" y2="-3.47667" gradientUnits="userSpaceOnUse">
<stop stop-color="#B721FF"/>
<stop offset="1" stop-color="#4361EF"/>
</linearGradient>
</defs>
</svg>
